
<svg width="41px" height="42px" viewBox="0 0 41 42" version="1.1" xmlns="http://www.w3.org/2000/svg" xmlns:xlink="http://www.w3.org/1999/xlink">
    <g id="Welcome" stroke="none" stroke-width="1" fill="none" fill-rule="evenodd">
        <g id="Form-filled" transform="translate(-93.000000, -671.000000)" fill="#4B4B4B">
            <g id="Group-4" transform="translate(93.000000, 671.000000)">
                <g id="user-silhouette" transform="translate(0.000000, 11.500000)">
                    <path d="M16,16.5 C19.8657946,16.5 23,12.918244 23,8.49996275 C23,2.37301809 19.8659472,0.5 16,0.5 C12.1339002,0.5 9,2.37301809 9,8.49996275 C9.0000763,12.918244 12.1339765,16.5 16,16.5 Z" id="Path"></path>
                    <path d="M30.8483979,28.0493965 L27.3417392,20.1951262 C27.1813469,19.8357204 26.8995808,19.5376343 26.5488695,19.3560858 L21.106745,16.5392968 C20.9867349,16.4772991 20.8414196,16.4893521 20.7335317,16.5705593 C19.1943113,17.7281005 17.3845378,18.3399415 15.5000611,18.3399415 C13.6152813,18.3399415 11.8056594,17.7281005 10.266439,16.5705593 C10.1582481,16.4893521 10.0129328,16.4772991 9.89292271,16.5392968 L4.451177,19.3560858 C4.10031414,19.5376343 3.81885107,19.8355697 3.65830726,20.1951262 L0.151648596,28.0493965 C-0.0901141688,28.5908781 -0.0405645455,29.210403 0.284235508,29.7070624 C0.608884034,30.2036466 1.1583242,30.5 1.75405614,30.5 L29.2458388,30.5 C29.8415707,30.5 30.3911624,30.2034959 30.715811,29.7069871 C31.0404595,29.210403 31.0901606,28.5906521 30.8483979,28.0493965 Z" id="Path"></path>
                </g>
                <path d="M38.9336735,-5.5067062e-14 C37.9074168,-4.9928137e-14 33.2849678,-3.39070984e-14 25.0663265,-7.00394603e-15 C23.926977,-7.00394603e-15 23,0.92697895 23,2.06633079 L23,11.7090284 C23,12.8485596 23.926977,13.7753592 25.0663265,13.7753592 L25.8010204,13.7753592 L25.8010204,17.3110808 C25.8010204,17.5910758 25.9705237,17.8432686 26.2297114,17.9489169 C26.4926658,18.0561796 26.7891621,17.9899924 26.9821628,17.7928659 L30.9121293,13.7753592 L38.9336735,13.7753592 C40.073023,13.7753592 41,12.8485596 41,11.7090284 C41,5.57098918 41,2.18226276 41,1.54284919 C41,0.583728827 40.4730585,-6.24361673e-14 38.9336735,-5.5067062e-14 Z" id="Shape" fill-rule="nonzero"></path>
            </g>
        </g>
    </g>
</svg>
