
<svg width="40px" height="40px" viewBox="0 0 40 40" version="1.1" xmlns="http://www.w3.org/2000/svg" xmlns:xlink="http://www.w3.org/1999/xlink">
    <g id="Welcome" stroke="none" stroke-width="1" fill="none" fill-rule="evenodd">
        <g id="Form-filled" transform="translate(-93.000000, -1033.000000)" fill="#4B4B4B" fill-rule="nonzero">
            <g id="writing" transform="translate(93.000000, 1033.000000)">
                <path d="M34.6849519,0.343323295 C34.2274907,-0.114441098 33.485299,-0.114441098 33.0278379,0.343323295 L23.996109,9.3750148 L3.51564511,9.3750148 C1.57715746,9.3750148 0,10.9521657 0,12.8906453 L0,29.2966161 C0,31.2354008 1.57715746,32.8122466 3.51564511,32.8122466 L4.76565227,32.8122466 L4.76565227,38.8278811 C4.76565227,39.3042612 5.05404501,39.7333391 5.49502659,39.9130879 C5.94241681,40.0955832 6.44687524,39.9829732 6.77524626,39.6475845 L13.4616859,32.8122466 L27.1095301,32.8122466 C29.0480178,32.8122466 30.6251752,31.2354008 30.6251752,29.2966161 L30.6251752,16.0040535 L39.6569042,6.97236211 C40.1143653,6.51459771 40.1143653,5.7727142 39.6569042,5.31494981 L34.6849519,0.343323295 Z M23.9124903,19.4018861 L20.5979572,16.0873667 L30.5418618,6.14380853 L33.8563949,9.4583279 L23.9124903,19.4018861 Z M19.3494759,18.15341 L21.8464384,20.6503622 L17.5666288,22.4332019 L19.3494759,18.15341 Z M28.2814118,29.2966161 C28.2814118,29.9429793 27.7555909,30.4684929 27.1095301,30.4684929 L12.9688242,30.4684929 C12.6535758,30.4684929 12.35145,30.5957514 12.1311119,30.8209714 L7.10941567,35.9543414 L7.10941567,31.6403698 C7.10941567,30.9933961 6.58481549,30.4684929 5.93753397,30.4684929 L3.51564511,30.4684929 C2.86958431,30.4684929 2.34376341,29.9429793 2.34376341,29.2966161 L2.34376341,12.8906453 C2.34376341,12.244282 2.86958431,11.7187685 3.51564511,11.7187685 L21.6520404,11.7187685 L18.111981,15.2588131 C18.0143242,15.3564695 17.917583,15.4910523 17.8531905,15.6503543 L14.6094586,23.437537 L8.28129738,23.437537 C7.63401586,23.437537 7.10941567,23.962135 7.10941567,24.6094138 C7.10941567,25.2563875 7.63401586,25.7803751 8.28129738,25.7803751 L15.3901027,25.7803751 L15.3910182,25.7803751 C15.5417759,25.7803751 15.70352,25.7495523 15.8515312,25.6860757 L24.3495045,22.1466413 C24.4911069,22.0914045 24.63393,21.9952739 24.7413525,21.8878519 L28.2814118,18.3478072 L28.2814118,29.2966161 Z M35.5135088,7.8009156 L32.1989757,4.48639623 L33.8563949,2.82928917 L37.170928,6.14380853 L35.5135088,7.8009156 Z" id="Shape"></path>
            </g>
        </g>
    </g>
</svg>
