<svg xmlns="http://www.w3.org/2000/svg" width="22" height="21" viewBox="0 0 22 21"><g><g><g><path d="M20.677 2.677h-9.344V1.333h9.344zM10 0v4h12V0z"/></g><g><path d="M11.333 17.333h9.344v1.344h-9.344zM10 20h12v-4H10z"/></g><g><path d="M11.333 8.333h9.344v1.344h-9.344zM10 11h12V7H10z"/></g><g><path d="M8 2h1v1H8z"/></g><g><path d="M4.537 2.965H5V2h-.463c-.18 0-.36.017-.537.048L4.151 3c.127-.022.256-.034.386-.035z"/></g><g><path d="M4.562 15.34l1.663 1.622h-1.15c-2.001-.003-3.623-1.585-3.625-3.538V6.348c0-1.294.722-2.485 1.885-3.106L2.639 2C1.011 2.87-.001 4.536 0 6.348v7.076c.003 2.734 2.273 4.95 5.075 4.953h1.15l-1.663 1.622L5.587 21 9 17.67l-3.413-3.331z"/></g></g></g></svg>