
<svg width="132px" height="40px" viewBox="0 0 132 40" version="1.1" xmlns="http://www.w3.org/2000/svg" xmlns:xlink="http://www.w3.org/1999/xlink">
    <g id="Welcome" stroke="none" stroke-width="1" fill="none" fill-rule="evenodd">
        <g id="Form-filled" transform="translate(-44.000000, -14.000000)">
            <g id="Logo-concept--color" transform="translate(44.000000, 14.000000)">
                <path d="M63.92777,5.71 C63.92777,6.57800434 63.7667716,7.30949702 63.44477,7.9045 C63.1227684,8.49950297 62.6887727,8.97899818 62.14277,9.343 C61.5967673,9.70700182 60.9667736,9.97299916 60.25277,10.141 C59.5387664,10.3090008 58.7967739,10.393 58.02677,10.393 L56.24177,10.393 L56.24177,16 L52.65077,16 L52.65077,1.132 L58.11077,1.132 C58.9227741,1.132 59.6822665,1.21249919 60.38927,1.3735 C61.0962735,1.5345008 61.7122674,1.79349821 62.23727,2.1505 C62.7622726,2.50750178 63.1752685,2.97649709 63.47627,3.5575 C63.7772715,4.1385029 63.92777,4.85599573 63.92777,5.71 Z M60.33677,5.731 C60.33677,5.38099825 60.2667707,5.09400112 60.12677,4.87 C59.9867693,4.64599888 59.7977712,4.47100063 59.55977,4.345 C59.3217688,4.21899937 59.0522715,4.13500021 58.75127,4.093 C58.4502685,4.05099979 58.1387716,4.03 57.81677,4.03 L56.24177,4.03 L56.24177,7.537 L57.75377,7.537 C58.0897717,7.537 58.4117685,7.50900028 58.71977,7.453 C59.0277715,7.39699972 59.3042688,7.2990007 59.54927,7.159 C59.7942712,7.0189993 59.9867693,6.83350115 60.12677,6.6025 C60.2667707,6.37149884 60.33677,6.08100175 60.33677,5.731 Z M72.5533275,8.356 C72.3993267,8.31399979 72.2488282,8.28600007 72.1018275,8.272 C71.9548268,8.25799993 71.8113282,8.251 71.6713275,8.251 C71.2093252,8.251 70.8208291,8.33499916 70.5058275,8.503 C70.1908259,8.67100084 69.9388284,8.87399881 69.7498275,9.112 C69.5608266,9.35000119 69.4243279,9.6089986 69.3403275,9.889 C69.2563271,10.1690014 69.2143275,10.4139989 69.2143275,10.624 L69.2143275,16 L65.7703275,16 L65.7703275,5.542 L69.0883275,5.542 L69.0883275,7.054 L69.1303275,7.054 C69.3963288,6.52199734 69.7743251,6.08800168 70.2643275,5.752 C70.75433,5.41599832 71.3213243,5.248 71.9653275,5.248 C72.1053282,5.248 72.2418268,5.25499993 72.3748275,5.269 C72.5078282,5.28300007 72.6163271,5.30399986 72.7003275,5.332 L72.5533275,8.356 Z M78.595885,2.203 C78.595885,2.46900133 78.5433855,2.71749884 78.438385,2.9485 C78.3333845,3.17950115 78.1933859,3.37899916 78.018385,3.547 C77.8433841,3.71500084 77.6333862,3.84799951 77.388385,3.946 C77.1433838,4.04400049 76.8878863,4.093 76.621885,4.093 C76.0618822,4.093 75.5928869,3.90750185 75.214885,3.5365 C74.8368831,3.16549814 74.647885,2.72100259 74.647885,2.203 C74.647885,1.95099874 74.6968845,1.70950115 74.794885,1.4785 C74.8928855,1.24749884 75.0328841,1.04800084 75.214885,0.88 C75.3968859,0.71199916 75.6068838,0.575500525 75.844885,0.4705 C76.0828862,0.365499475 76.3418836,0.313 76.621885,0.313 C76.8878863,0.313 77.1433838,0.36199951 77.388385,0.46 C77.6333862,0.55800049 77.8433841,0.69099916 78.018385,0.859 C78.1933859,1.02700084 78.3333845,1.22649884 78.438385,1.4575 C78.5433855,1.68850115 78.595885,1.93699867 78.595885,2.203 Z M74.899885,16 L74.899885,5.542 L78.343885,5.542 L78.343885,16 L74.899885,16 Z M92.9334425,10.729 C92.9334425,11.5830043 92.779444,12.3564965 92.4714425,13.0495 C92.163441,13.7425035 91.7434452,14.3304976 91.2114425,14.8135 C90.6794398,15.2965024 90.063446,15.6709987 89.3634425,15.937 C88.663439,16.2030013 87.9144465,16.336 87.1164425,16.336 C86.3324386,16.336 85.586946,16.2030013 84.8799425,15.937 C84.172939,15.6709987 83.5569451,15.2965024 83.0319425,14.8135 C82.5069399,14.3304976 82.090444,13.7425035 81.7824425,13.0495 C81.474441,12.3564965 81.3204425,11.5830043 81.3204425,10.729 C81.3204425,9.87499573 81.474441,9.10500343 81.7824425,8.419 C82.090444,7.73299657 82.5069399,7.15200238 83.0319425,6.676 C83.5569451,6.19999762 84.172939,5.83600126 84.8799425,5.584 C85.586946,5.33199874 86.3324386,5.206 87.1164425,5.206 C87.9144465,5.206 88.663439,5.33199874 89.3634425,5.584 C90.063446,5.83600126 90.6794398,6.19999762 91.2114425,6.676 C91.7434452,7.15200238 92.163441,7.73299657 92.4714425,8.419 C92.779444,9.10500343 92.9334425,9.87499573 92.9334425,10.729 Z M89.6154425,10.729 C89.6154425,10.3929983 89.5594431,10.0640016 89.4474425,9.742 C89.3354419,9.41999839 89.1744436,9.13650122 88.9644425,8.8915 C88.7544415,8.64649877 88.495444,8.44700077 88.1874425,8.293 C87.879441,8.13899923 87.5224445,8.062 87.1164425,8.062 C86.7104405,8.062 86.353444,8.13899923 86.0454425,8.293 C85.737441,8.44700077 85.4819435,8.64649877 85.2789425,8.8915 C85.0759415,9.13650122 84.921943,9.41999839 84.8169425,9.742 C84.711942,10.0640016 84.6594425,10.3929983 84.6594425,10.729 C84.6594425,11.0650017 84.711942,11.3939984 84.8169425,11.716 C84.921943,12.0380016 85.0794415,12.3284987 85.2894425,12.5875 C85.4994436,12.8465013 85.758441,13.0529992 86.0664425,13.207 C86.374444,13.3610008 86.7314405,13.438 87.1374425,13.438 C87.5434445,13.438 87.900441,13.3610008 88.2084425,13.207 C88.516444,13.0529992 88.7754415,12.8465013 88.9854425,12.5875 C89.1954436,12.3284987 89.352942,12.0380016 89.4579425,11.716 C89.562943,11.3939984 89.6154425,11.0650017 89.6154425,10.729 Z M102.672,8.356 C102.517999,8.31399979 102.367501,8.28600007 102.2205,8.272 C102.073499,8.25799993 101.930001,8.251 101.79,8.251 C101.327998,8.251 100.939502,8.33499916 100.6245,8.503 C100.309498,8.67100084 100.057501,8.87399881 99.8685,9.112 C99.6794991,9.35000119 99.5430004,9.6089986 99.459,9.889 C99.3749996,10.1690014 99.333,10.4139989 99.333,10.624 L99.333,16 L95.889,16 L95.889,5.542 L99.207,5.542 L99.207,7.054 L99.249,7.054 C99.5150013,6.52199734 99.8929976,6.08800168 100.383,5.752 C100.873002,5.41599832 101.439997,5.248 102.084,5.248 C102.224001,5.248 102.360499,5.25499993 102.4935,5.269 C102.626501,5.28300007 102.735,5.30399986 102.819,5.332 L102.672,8.356 Z M108.714558,2.203 C108.714558,2.46900133 108.662058,2.71749884 108.557058,2.9485 C108.452057,3.17950115 108.312058,3.37899916 108.137058,3.547 C107.962057,3.71500084 107.752059,3.84799951 107.507058,3.946 C107.262056,4.04400049 107.006559,4.093 106.740558,4.093 C106.180555,4.093 105.711559,3.90750185 105.333558,3.5365 C104.955556,3.16549814 104.766558,2.72100259 104.766558,2.203 C104.766558,1.95099874 104.815557,1.70950115 104.913558,1.4785 C105.011558,1.24749884 105.151557,1.04800084 105.333558,0.88 C105.515558,0.71199916 105.725556,0.575500525 105.963558,0.4705 C106.201559,0.365499475 106.460556,0.313 106.740558,0.313 C107.006559,0.313 107.262056,0.36199951 107.507058,0.46 C107.752059,0.55800049 107.962057,0.69099916 108.137058,0.859 C108.312058,1.02700084 108.452057,1.22649884 108.557058,1.4575 C108.662058,1.68850115 108.714558,1.93699867 108.714558,2.203 Z M105.018558,16 L105.018558,5.542 L108.462558,5.542 L108.462558,16 L105.018558,16 Z M115.702115,8.125 L115.702115,12.115 C115.702115,12.6050024 115.796614,12.9724988 115.985615,13.2175 C116.174616,13.4625012 116.514113,13.585 117.004115,13.585 C117.172116,13.585 117.350614,13.5710001 117.539615,13.543 C117.728616,13.5149999 117.886114,13.4730003 118.012115,13.417 L118.054115,15.937 C117.816114,16.0210004 117.515117,16.0944997 117.151115,16.1575 C116.787113,16.2205003 116.423117,16.252 116.059115,16.252 C115.359112,16.252 114.771117,16.1645009 114.295115,15.9895 C113.819113,15.8144991 113.437616,15.5625016 113.150615,15.2335 C112.863614,14.9044984 112.657116,14.5125023 112.531115,14.0575 C112.405114,13.6024977 112.342115,13.0950028 112.342115,12.535 L112.342115,8.125 L110.662115,8.125 L110.662115,5.542 L112.321115,5.542 L112.321115,2.791 L115.702115,2.791 L115.702115,5.542 L118.159115,5.542 L118.159115,8.125 L115.702115,8.125 Z M126.448673,17.575 C126.238671,18.1210027 126.004174,18.6074979 125.745173,19.0345 C125.486171,19.4615021 125.178174,19.8254985 124.821173,20.1265 C124.464171,20.4275015 124.044175,20.6549992 123.561173,20.809 C123.07817,20.9630008 122.507676,21.04 121.849673,21.04 C121.527671,21.04 121.195174,21.0190002 120.852173,20.977 C120.509171,20.9349998 120.211674,20.8790003 119.959673,20.809 L120.337673,17.911 C120.505673,17.9670003 120.691171,18.0124998 120.894173,18.0475 C121.097174,18.0825002 121.282672,18.1 121.450673,18.1 C121.982675,18.1 122.367671,17.9775012 122.605673,17.7325 C122.843674,17.4874988 123.046672,17.1410022 123.214673,16.693 L123.550673,15.832 L119.182673,5.542 L123.004673,5.542 L125.335673,12.262 L125.398673,12.262 L127.477673,5.542 L131.131673,5.542 L126.448673,17.575 Z" id="Priority" fill="#C90035"></path>
                <path d="M53.8418275,37 L52.3298275,37 L52.3298275,22.132 L56.6978275,22.132 C57.4258311,22.132 58.1013244,22.2019993 58.7243275,22.342 C59.3473306,22.4820007 59.8863252,22.7094984 60.3413275,23.0245 C60.7963298,23.3395016 61.1498262,23.7489975 61.4018275,24.253 C61.6538288,24.7570025 61.7798275,25.3729964 61.7798275,26.101 C61.7798275,26.6470027 61.6818285,27.1439978 61.4858275,27.592 C61.2898265,28.0400022 61.0238292,28.4284984 60.6878275,28.7575 C60.3518258,29.0865016 59.9528298,29.348999 59.4908275,29.545 C59.0288252,29.741001 58.5248302,29.8669997 57.9788275,29.923 L62.3258275,37 L60.4778275,37 L56.3618275,30.049 L53.8418275,30.049 L53.8418275,37 Z M53.8418275,28.747 L56.4668275,28.747 C57.6848336,28.747 58.6228242,28.5265022 59.2808275,28.0855 C59.9388308,27.6444978 60.2678275,26.9830044 60.2678275,26.101 C60.2678275,25.6109976 60.1768284,25.1980017 59.9948275,24.862 C59.8128266,24.5259983 59.5608291,24.2530011 59.2388275,24.043 C58.9168259,23.832999 58.5248298,23.6790005 58.0628275,23.581 C57.6008252,23.4829995 57.0898303,23.434 56.5298275,23.434 L53.8418275,23.434 L53.8418275,28.747 Z M75.109385,32.086 C75.109385,32.8280037 74.9798863,33.5139969 74.720885,34.144 C74.4618837,34.7740032 74.1013873,35.3199977 73.639385,35.782 C73.1773827,36.2440023 72.6243882,36.6044987 71.980385,36.8635 C71.3363818,37.1225013 70.6293889,37.252 69.859385,37.252 C69.1033812,37.252 68.4033882,37.1225013 67.759385,36.8635 C67.1153818,36.6044987 66.5623873,36.2440023 66.100385,35.782 C65.6383827,35.3199977 65.2778863,34.7740032 65.018885,34.144 C64.7598837,33.5139969 64.630385,32.8280037 64.630385,32.086 C64.630385,31.3439963 64.7598837,30.6580032 65.018885,30.028 C65.2778863,29.3979969 65.6383827,28.8520023 66.100385,28.39 C66.5623873,27.9279977 67.1153818,27.5675013 67.759385,27.3085 C68.4033882,27.0494987 69.1033812,26.92 69.859385,26.92 C70.6293889,26.92 71.3363818,27.0494987 71.980385,27.3085 C72.6243882,27.5675013 73.1773827,27.9279977 73.639385,28.39 C74.1013873,28.8520023 74.4618837,29.3979969 74.720885,30.028 C74.9798863,30.6580032 75.109385,31.3439963 75.109385,32.086 Z M73.597385,32.086 C73.597385,31.5399973 73.5098859,31.0255024 73.334885,30.5425 C73.1598841,30.0594976 72.9113866,29.6395018 72.589385,29.2825 C72.2673834,28.9254982 71.8753873,28.6420011 71.413385,28.432 C70.9513827,28.221999 70.4333879,28.117 69.859385,28.117 C69.2853821,28.117 68.7708873,28.221999 68.315885,28.432 C67.8608827,28.6420011 67.4723866,28.9254982 67.150385,29.2825 C66.8283834,29.6395018 66.5798859,30.0594976 66.404885,30.5425 C66.2298841,31.0255024 66.142385,31.5399973 66.142385,32.086 C66.142385,32.6320027 66.2298841,33.1464976 66.404885,33.6295 C66.5798859,34.1125024 66.8283834,34.5324982 67.150385,34.8895 C67.4723866,35.2465018 67.8608827,35.526499 68.315885,35.7295 C68.7708873,35.932501 69.2853821,36.034 69.859385,36.034 C70.4333879,36.034 70.9513827,35.932501 71.413385,35.7295 C71.8753873,35.526499 72.2673834,35.2465018 72.589385,34.8895 C72.9113866,34.5324982 73.1598841,34.1125024 73.334885,33.6295 C73.5098859,33.1464976 73.597385,32.6320027 73.597385,32.086 Z M86.0239425,29.419 C85.7859413,29.0409981 85.4394448,28.7295012 84.9844425,28.4845 C84.5294402,28.2394988 84.0359452,28.117 83.5039425,28.117 C82.9299396,28.117 82.4119448,28.218499 81.9499425,28.4215 C81.4879402,28.624501 81.0924441,28.9044982 80.7634425,29.2615 C80.4344409,29.6185018 80.1824434,30.0384976 80.0074425,30.5215 C79.8324416,31.0045024 79.7449425,31.5259972 79.7449425,32.086 C79.7449425,32.6460028 79.8324416,33.1639976 80.0074425,33.64 C80.1824434,34.1160024 80.4309409,34.5324982 80.7529425,34.8895 C81.0749441,35.2465018 81.4669402,35.526499 81.9289425,35.7295 C82.3909448,35.932501 82.9089396,36.034 83.4829425,36.034 C84.1129457,36.034 84.6449403,35.9150012 85.0789425,35.677 C85.5129447,35.4389988 85.8699411,35.1310019 86.1499425,34.753 L87.2209425,35.551 C86.8009404,36.0690026 86.2864455,36.4819985 85.6774425,36.79 C85.0684395,37.0980015 84.3369468,37.252 83.4829425,37.252 C82.6849385,37.252 81.9639457,37.1225013 81.3199425,36.8635 C80.6759393,36.6044987 80.1264448,36.2440023 79.6714425,35.782 C79.2164402,35.3199977 78.8629438,34.7740032 78.6109425,34.144 C78.3589412,33.5139969 78.2329425,32.8280037 78.2329425,32.086 C78.2329425,31.3439963 78.3589412,30.6580032 78.6109425,30.028 C78.8629438,29.3979969 79.2164402,28.8520023 79.6714425,28.39 C80.1264448,27.9279977 80.6759393,27.5675013 81.3199425,27.3085 C81.9639457,27.0494987 82.6849385,26.92 83.4829425,26.92 C84.1409458,26.92 84.8094391,27.0634986 85.4884425,27.3505 C86.1674459,27.6375014 86.7169404,28.0609972 87.1369425,28.621 L86.0239425,29.419 Z M91.6885,31.603 L91.7515,31.603 L96.2875,27.172 L98.3455,27.172 L93.3895,31.666 L98.8495,37 L96.7495,37 L91.7515,31.834 L91.6885,31.834 L91.6885,37 L90.2605,37 L90.2605,21.124 L91.6885,21.124 L91.6885,31.603 Z M108.819058,31.33 C108.777057,30.4059954 108.47956,29.639503 107.926558,29.0305 C107.373555,28.421497 106.586063,28.117 105.564058,28.117 C105.088055,28.117 104.64706,28.2044991 104.241058,28.3795 C103.835055,28.5545009 103.478059,28.7924985 103.170058,29.0935 C102.862056,29.3945015 102.617058,29.7374981 102.435058,30.1225 C102.253057,30.5075019 102.148058,30.9099979 102.120058,31.33 L108.819058,31.33 Z M110.268058,31.792 L110.268058,32.107 C110.268058,32.2190006 110.261058,32.3379994 110.247058,32.464 L102.099058,32.464 C102.113058,32.9540025 102.211057,33.4159978 102.393058,33.85 C102.575058,34.2840022 102.827056,34.6619984 103.149058,34.984 C103.471059,35.3060016 103.849055,35.5614991 104.283058,35.7505 C104.71706,35.9395009 105.186055,36.034 105.690058,36.034 C106.432061,36.034 107.072555,35.8625017 107.611558,35.5195 C108.15056,35.1764983 108.560056,34.7810022 108.840058,34.333 L109.911058,35.173 C109.323055,35.9150037 108.675561,36.4469984 107.968558,36.769 C107.261554,37.0910016 106.502062,37.252 105.690058,37.252 C104.962054,37.252 104.286561,37.1225013 103.663558,36.8635 C103.040554,36.6044987 102.50506,36.2440023 102.057058,35.782 C101.609055,35.3199977 101.255559,34.7740032 100.996558,34.144 C100.737556,33.5139969 100.608058,32.8280037 100.608058,32.086 C100.608058,31.3439963 100.734056,30.6580032 100.986058,30.028 C101.238059,29.3979969 101.588055,28.8520023 102.036058,28.39 C102.48406,27.9279977 103.009054,27.5675013 103.611058,27.3085 C104.213061,27.0494987 104.864054,26.92 105.564058,26.92 C106.334061,26.92 107.013055,27.0494987 107.601058,27.3085 C108.18906,27.5675013 108.679056,27.9174978 109.071058,28.3585 C109.463059,28.7995022 109.760556,29.3139971 109.963558,29.902 C110.166559,30.4900029 110.268058,31.1199966 110.268058,31.792 Z M118.536615,28.369 L115.764615,28.369 L115.764615,34.102 C115.764615,34.4660018 115.799615,34.7669988 115.869615,35.005 C115.939615,35.2430012 116.041114,35.4284993 116.174115,35.5615 C116.307116,35.6945007 116.464614,35.7854998 116.646615,35.8345 C116.828616,35.8835002 117.024614,35.908 117.234615,35.908 C117.430616,35.908 117.637114,35.8800003 117.854115,35.824 C118.071116,35.7679997 118.277614,35.6910005 118.473615,35.593 L118.536615,36.832 C118.284614,36.9300005 118.022116,37.0034998 117.749115,37.0525 C117.476114,37.1015002 117.178617,37.126 116.856615,37.126 C116.590614,37.126 116.310616,37.0910004 116.016615,37.021 C115.722614,36.9509997 115.449616,36.818001 115.197615,36.622 C114.945614,36.425999 114.739116,36.1600017 114.578115,35.824 C114.417114,35.4879983 114.336615,35.0470027 114.336615,34.501 L114.336615,28.369 L112.299615,28.369 L112.299615,27.172 L114.336615,27.172 L114.336615,24.4 L115.764615,24.4 L115.764615,27.172 L118.536615,27.172 L118.536615,28.369 Z" id="Rocket" fill="#581646"></path>
                <g id="startup">
                    <path d="M21.5522727,18.4484424 C21.1968182,18.0929434 20.6213636,18.0929434 20.2659091,18.4484424 C19.9113636,18.8030322 19.9113636,19.3785587 20.2659091,19.7340577 C20.6213636,20.0886474 21.1968182,20.0886474 21.5522727,19.7340577 C21.9068182,19.3785587 21.9068182,18.8030322 21.5522727,18.4484424 Z" id="Path" fill="#FF5626"></path>
                    <path d="M31.661292,8.33868474 C30.2399843,6.91744449 27.9391244,6.91737175 26.517744,8.33868474 C25.100146,9.75628805 25.1000732,12.0635577 26.5179622,13.4823248 C27.9360693,14.8995644 30.2433303,14.9001463 31.661292,13.4821793 C33.0824542,12.0610118 33.0827451,9.76007046 31.661292,8.33868474 Z M30.632626,12.4534368 C29.7820963,13.3040424 28.3975943,13.3040424 27.5466281,12.4535822 C26.695953,11.6023947 26.6958802,10.2178875 27.5464827,9.36735456 C28.3991945,8.5146395 29.7797687,8.51449403 30.632626,9.36735456 C31.4853379,10.2199969 31.4854834,11.600649 30.632626,12.4534368 Z" id="Shape" fill="#FF5626" fill-rule="nonzero"></path>
                    <path d="M39.7696009,0.230446503 C39.6150831,0.0760076671 39.4042341,-0.00770243022 39.1850455,0.000558434643 C39.0071613,0.00693110182 34.7716917,0.177183593 29.7368839,1.95673123 C25.7024289,3.38121904 22.3396226,5.42070856 19.7418522,8.01855387 C19.1597358,8.60066948 18.5932756,9.21795277 18.0512834,9.85923191 C15.4827014,8.34725762 13.4244056,8.82135259 12.1231995,9.51770416 C9.12717613,11.1210987 7.27272727,15.4746531 7.27272727,18.5886058 C7.2729633,18.9067671 7.46469432,19.1936945 7.75862418,19.3154046 C7.85594518,19.3557648 7.95822271,19.3753549 8.05955613,19.3753549 C8.2643472,19.3753549 8.46551922,19.2953425 8.61602453,19.1449161 C10.1960549,17.564888 12.1449138,17.6637037 12.781552,17.7474138 L13.057072,18.0229333 C12.5148437,19.3132017 12.07804,20.596232 11.7576754,21.8440947 C11.6420231,22.2956886 11.6810459,22.77356 11.8529508,23.2106777 C11.0954677,23.5597583 10.3646555,24.0723253 9.72833194,24.7086479 C7.7031583,26.7338973 7.29192398,31.6694887 7.27540222,31.8786065 C7.25730697,32.1081012 7.34054514,32.3340556 7.50332375,32.4968339 C7.65146881,32.6449001 7.85185408,32.7272727 8.05955613,32.7272727 C8.08016898,32.7272727 8.10086051,32.726486 8.12155204,32.7248338 C8.33067024,32.7083908 13.2664262,32.297157 15.2915998,30.2719863 C15.9276873,29.6358997 16.4401764,28.9051672 16.7892575,28.1478426 C17.2520239,28.3298177 17.7283225,28.35224 18.1566293,28.2424885 C19.403943,27.922203 20.6868179,27.4855573 21.9772455,26.9432512 L22.2527654,27.2187707 C22.336397,27.8554867 22.4352128,29.8043427 20.8552611,31.3842135 C20.6303292,31.6092237 20.5629834,31.9476044 20.6847723,32.2415339 C20.8064826,32.535542 21.0933317,32.7271941 21.4115721,32.7271941 C24.5255293,32.7271941 28.8790115,30.8727479 30.4824083,27.8767289 C31.1787609,26.575682 31.6528566,24.5173892 30.1408801,21.9487323 C30.7818455,21.4069769 31.3992083,20.8405176 31.9815608,20.258166 C34.5794099,17.6603206 36.6188237,14.2975192 38.0433136,10.2633849 C39.8229425,5.22834842 39.9931166,0.992806317 39.9994893,0.815001035 C40.0073568,0.596678178 39.9240399,0.384964013 39.7696009,0.230446503 Z M9.03174333,16.8963873 C9.52047254,14.5311837 10.9400059,11.9357773 12.8659703,10.9049787 C14.153015,10.2162586 15.559803,10.2837617 17.0555724,11.1025314 C15.7812731,12.7784642 14.6734502,14.5840532 13.7500415,16.4907395 C13.7383189,16.4835014 13.5967039,16.3054601 13.3336146,16.2461393 C13.2254365,16.2216714 11.1437742,15.7739325 9.03174333,16.8963873 Z M14.1789777,29.1592872 C13.0971962,30.2410671 10.5595335,30.8116175 8.95558591,31.0445739 C9.18862131,29.44055 9.75925122,26.9029696 10.840954,25.8212684 C11.4467517,25.2154716 12.1491622,24.7561675 12.8551919,24.4974845 L15.5027636,27.1450523 C15.2440801,27.8510809 14.784854,28.5534904 14.1789777,29.1592872 Z M17.7657718,26.718241 C17.5380863,26.7765391 17.2743676,26.6909408 17.0783095,26.4951976 C16.0604908,25.4773804 15.6623165,25.0792067 15.5373806,24.9543496 C15.3082789,24.7252483 14.7464606,24.1634308 13.5055196,22.9224129 C13.3093041,22.7258043 13.2237056,22.4621647 13.2818465,22.2348729 C13.5338426,21.2534822 13.8634122,20.2466007 14.2641828,19.2300423 L20.7702134,25.7360635 C19.7534961,26.1369121 18.7467706,26.4664026 17.7657718,26.718241 Z M29.0952891,27.1342738 C28.064489,29.0601568 25.4691575,30.4797668 23.1040291,30.9684166 C23.8581292,29.5493574 24.0243695,27.7429029 23.7488496,26.6475122 C23.6848868,26.3930776 23.5188825,26.2651522 23.5095988,26.2501253 C25.4161306,25.3267179 27.2216435,24.2188966 28.8977361,22.9445992 C29.716507,24.4405238 29.7839315,25.8474671 29.0952891,27.1342738 Z M30.8690961,19.1455455 C30.1601555,19.8544063 29.3967718,20.5392714 28.6001085,21.1810226 C26.6850012,22.7230507 24.5771402,24.0292114 22.3282934,25.0689789 L14.9312682,17.6721219 C15.9710373,15.4231211 17.2771999,13.3152631 18.8190729,11.4003946 C19.4613758,10.6031818 20.1461631,9.83972054 20.854789,9.13117436 C23.1855364,6.80035167 26.1935971,4.94535479 29.797857,3.61008433 L36.3901941,10.2024118 C35.0550791,13.8065878 33.2000795,16.8146441 30.8690961,19.1455455 Z M36.9562609,8.54307945 L31.4571918,3.0440184 C34.4532152,2.11345164 37.0596399,1.76500049 38.36061,1.63975005 C38.2352807,2.94095428 37.8867503,5.54737515 36.9562609,8.54307945 Z" id="Shape" fill="#FF5626" fill-rule="nonzero"></path>
                    <path d="M16.2533181,32.8375075 C16.1061832,32.6904776 15.8677245,32.6905529 15.7207026,32.8375828 L14.6556975,33.9027494 C14.5086755,34.049817 14.5087132,34.2882275 14.6557728,34.4352198 C14.8029077,34.582212 15.0413664,34.582212 15.1883883,34.4351445 L16.2533935,33.3699779 C16.4004154,33.2229103 16.4003777,32.9844997 16.2533181,32.8375075 Z" id="Path" fill="#581646"></path>
                    <path d="M7.16251132,23.7466966 C7.01551908,23.5995986 6.77714617,23.5995986 6.63004097,23.7466212 L5.56487436,24.8116319 C5.41780681,24.9586546 5.41776916,25.1971145 5.5647614,25.3442125 C5.71171599,25.4912352 5.95008891,25.4913858 6.09723175,25.3442878 L7.16239837,24.2792772 C7.30946591,24.1322545 7.30950356,23.8937946 7.16251132,23.7466966 Z" id="Path" fill="#FFC500"></path>
                    <path d="M12.4845211,32.9700749 C12.1610042,32.6463525 11.6360663,32.6463525 11.3123007,32.969992 L5.69738,38.5847717 C5.37361442,38.908494 5.37361442,39.4334133 5.69729711,39.7571357 C6.02081402,40.080858 6.54575191,40.0810238 6.86951749,39.7572186 L12.4844382,34.1424389 C12.8082038,33.8187165 12.8082038,33.2937972 12.4845211,32.9700749 Z" id="Path" fill="#91053D"></path>
                    <path d="M7.02997562,32.9700749 C6.70637582,32.6463525 6.18143793,32.6463525 5.85775524,32.969992 L0.242834545,38.5847717 C-0.0809310322,38.908494 -0.0809310322,39.4334133 0.242751656,39.7571357 C0.566268566,40.080858 1.09120646,40.0810238 1.41497203,39.7572186 L7.02989273,34.1424389 C7.3536583,33.8187165 7.3536583,33.2937972 7.02997562,32.9700749 Z" id="Path" fill="#FF5626"></path>
                    <path d="M7.02986505,27.5154161 C6.70622836,27.1918172 6.18123064,27.1918172 5.85751105,27.515499 L0.242779326,33.1304037 C-0.0809402572,33.4541683 -0.0809402572,33.9789389 0.242862225,34.3027036 C0.566581809,34.6263853 1.09149664,34.6263853 1.41521622,34.3026207 L7.02994795,28.687716 C7.35366753,28.3639513 7.35366753,27.8391807 7.02986505,27.5154161 Z" id="Path" fill="#FF5626"></path>
                    <path d="M25.2985723,14.7014277 C25.0905549,14.4934635 24.7534453,14.4934635 24.5453747,14.7014277 L23.7923367,15.4544656 C23.5843726,15.6624297 23.5843726,15.9996458 23.7923367,16.2076633 C24.0003542,16.4156274 24.337517,16.4156274 24.5455344,16.2076633 L25.2985723,15.4546253 C25.5065365,15.2466612 25.5065365,14.9094451 25.2985723,14.7014277 Z" id="Path" fill="#FFC500"></path>
                </g>
            </g>
        </g>
    </g>
</svg>
