<svg xmlns="http://www.w3.org/2000/svg" width="14" height="10" viewBox="0 0 14 10"><g><g><g><path d="M.5 1.668v6.664C.5 9.251 1.273 10 2.22 10h5.557c.947 0 1.72-.75 1.72-1.668v-1.08a.335.335 0 0 0-.34-.33.335.335 0 0 0-.341.331v1.08c0 .555-.468 1.01-1.042 1.01H2.22c-.573 0-1.041-.455-1.041-1.01V1.667c0-.556.468-1.01 1.041-1.01h5.557c.573 0 1.042.454 1.042 1.01v1.079c0 .183.152.33.34.33.189 0 .341-.147.341-.33v-1.08C9.5.75 8.727 0 7.78 0H2.22C1.273 0 .5.747.5 1.668z"/></g><g><path d="M10.914 7.906a.292.292 0 0 0 .43 0l2.067-2.181a.33.33 0 0 0 0-.45l-2.068-2.181a.29.29 0 0 0-.426 0 .33.33 0 0 0 0 .45L12.47 5.18H6.803a.312.312 0 0 0-.303.32c0 .177.136.32.303.32h5.664L10.914 7.46a.326.326 0 0 0 0 .447z"/></g></g></g></svg>