
<svg width="14px" height="10px" viewBox="0 0 14 10" version="1.1" xmlns="http://www.w3.org/2000/svg" xmlns:xlink="http://www.w3.org/1999/xlink">
    <g id="Welcome" stroke="none" stroke-width="1" fill="none" fill-rule="evenodd">
        <g id="Form-filled" transform="translate(-849.000000, -38.000000)" fill="#000000">
            <g id="logout" transform="translate(849.000000, 38.000000)">
                <path d="M0.5,1.66756176 L0.5,8.33243824 C0.5,9.25080559 1.27285319,10 2.22022161,10 L7.77700831,10 C8.72437673,10 9.49722992,9.25080559 9.49722992,8.33243824 L9.49722992,7.25295381 C9.49722992,7.07035446 9.34487535,6.9226638 9.1565097,6.9226638 C8.96814404,6.9226638 8.81578947,7.07035446 8.81578947,7.25295381 L8.81578947,8.33243824 C8.81578947,8.88829216 8.34764543,9.34210526 7.77423823,9.34210526 L2.22022161,9.34210526 C1.6468144,9.34210526 1.17867036,8.88829216 1.17867036,8.33243824 L1.17867036,1.66756176 C1.17867036,1.11170784 1.6468144,0.657894737 2.22022161,0.657894737 L7.77700831,0.657894737 C8.35041551,0.657894737 8.81855956,1.11170784 8.81855956,1.66756176 L8.81855956,2.74704619 C8.81855956,2.92964554 8.97091413,3.0773362 9.15927978,3.0773362 C9.34764543,3.0773362 9.5,2.92964554 9.5,2.74704619 L9.5,1.66756176 C9.5,0.749194415 8.72714681,0 7.77977839,0 L2.22022161,0 C1.27285319,1.90800949e-16 0.5,0.74650913 0.5,1.66756176 Z" id="Path"></path>
                <path d="M10.9144366,7.90639626 C10.9735915,7.96879875 11.05,8 11.1288732,8 C11.2077465,8 11.2841549,7.96879875 11.3433099,7.90639626 L13.4112676,5.724909 C13.5295775,5.600104 13.5295775,5.399896 13.4112676,5.275091 L11.3433099,3.09360374 C11.225,2.96879875 11.0352113,2.96879875 10.9169014,3.09360374 C10.7985915,3.21840874 10.7985915,3.41861674 10.9169014,3.54342174 L12.4697183,5.18148726 L6.80316901,5.18148726 C6.63556338,5.18148726 6.5,5.32449298 6.5,5.50130005 C6.5,5.67810712 6.63556338,5.82111284 6.80316901,5.82111284 L12.4672535,5.82111284 L10.9144366,7.45917837 C10.7961268,7.58138326 10.7961268,7.78419137 10.9144366,7.90639626 Z" id="Path"></path>
            </g>
        </g>
    </g>
</svg>
