<svg xmlns="http://www.w3.org/2000/svg" width="20" height="25" viewBox="0 0 20 25"><g><g><g><path d="M7.287 13.287H4.723v-2.564h2.564zM4.361 10c-.2 0-.361.162-.361.361v3.278c0 .2.162.361.361.361H7.64c.2 0 .361-.162.361-.361V10.36c0-.2-.162-.361-.361-.361z"/></g><g><path d="M15.638 9H9.362c-.2 0-.362.224-.362.5s.162.5.362.5h6.276c.2 0 .362-.224.362-.5s-.162-.5-.362-.5z"/></g><g><path d="M16 11.5c0-.276-.162-.5-.362-.5H9.362c-.2 0-.362.224-.362.5s.162.5.362.5h6.276c.2 0 .362-.224.362-.5z"/></g><g><path d="M9.326 13c-.18 0-.326.224-.326.5s.146.5.326.5h4.348c.18 0 .326-.224.326-.5s-.146-.5-.326-.5z"/></g><g><path d="M8.449 17.16l-3.16 7.1H4.131l3.16-7.1zm2.155 0v7.1H9.386v-7.1zm2.105 0l3.16 7.1h-1.158l-3.16-7.1zm6.43-14.448c.475 0 .861-.387.861-.863V.863A.863.863 0 0 0 19.14 0H5.242a.37.37 0 0 0 0 .74H19.14c.068 0 .123.055.123.123v.986a.123.123 0 0 1-.123.123H.86a.123.123 0 0 1-.123-.123V.863C.737.795.792.74.86.74h2.682a.37.37 0 0 0 0-.74H.86A.863.863 0 0 0 0 .863v.986c0 .476.386.863.86.863h.221v4.002a.37.37 0 1 0 .737 0V2.712h16.364v11.736H1.818V8.44a.37.37 0 1 0-.737 0v6.008H.86a.862.862 0 0 0-.86.863v.986c0 .476.386.863.86.863h5.623l-3.257 7.32a.37.37 0 0 0 .337.52h1.965a.368.368 0 0 0 .337-.219l2.784-6.256v6.105c0 .204.165.37.368.37h1.966a.37.37 0 0 0 .368-.37v-6.105l2.784 6.256c.06.133.191.219.337.219h1.966a.37.37 0 0 0 .325-.545l-3.247-7.295h2.792a.37.37 0 0 0 0-.74H.86a.123.123 0 0 1-.123-.123v-.986c0-.068.055-.124.123-.124h18.28c.068 0 .123.056.123.124v.986a.123.123 0 0 1-.123.123h-1.1a.37.37 0 0 0 0 .74h1.1c.474 0 .86-.387.86-.863v-.986a.862.862 0 0 0-.86-.863h-.221V2.712z"/></g><g><path d="M9.13 5.19a.385.385 0 0 0-.358-.04L3.22 7.354c-.184.073-.27.27-.19.442A.364.364 0 0 0 3.361 8a.383.383 0 0 0 .142-.027l5.36-2.126 2.295 1.592c.108.074.251.088.373.034l4.52-2.006-.243.75c-.059.178.05.366.241.42.035.01.07.015.105.015a.36.36 0 0 0 .346-.24l.483-1.483c.056-.172-.043-.355-.225-.415l-1.497-.495a.37.37 0 0 0-.462.205c-.067.176.032.368.22.43l.676.224-4.279 1.899z"/></g></g></g></svg>