<svg xmlns="http://www.w3.org/2000/svg" width="24" height="24" viewBox="0 0 24 24"><g><g><g><path d="M22.925 18.757l-1.154-.164a1.195 1.195 0 0 0-1.125 1.9l.7.933-1.274.956-.7-.934a1.195 1.195 0 0 0-2.14.548l-.164 1.155-1.576-.225.165-1.155a1.195 1.195 0 0 0-1.9-1.125l-.933.7-.956-1.274.932-.7a1.195 1.195 0 0 0-.547-2.139l-1.155-.165.225-1.577 1.155.165a1.195 1.195 0 0 0 1.125-1.9l-.7-.932 1.275-.956.7.933a1.195 1.195 0 0 0 2.138-.548l.165-1.155 1.577.226-.165 1.155a1.195 1.195 0 0 0 1.9 1.124l.933-.7.955 1.275-.932.7a1.195 1.195 0 0 0 .547 2.138l1.155.165zm-12.172-4.42H9.16V9.16h1.593zm3.992-8.363v5.31l-.16-.213a.402.402 0 0 0-.561-.08l-.882.658V5.974zm3.983-1.992v6.532l-1.603-.228V3.982zM8.76 8.363a.398.398 0 0 0-.398.398v5.576h-.796v-3.983a.398.398 0 0 0-.399-.398H4.78a.398.398 0 0 0-.398.398v3.186a.398.398 0 0 0-.39.317l-.275 1.31-1.1-.76a.39.39 0 0 0-.227-.066v-.004H.796V.797h22.302v13.01l-1.274-1.7a.398.398 0 0 0-.558-.08l-1.251.94a.398.398 0 0 1-.634-.376l.222-1.549a.393.393 0 0 0-.089-.307v-7.15a.398.398 0 0 0-.398-.399h-2.39a.398.398 0 0 0-.398.398v7.851l-.1.705a.395.395 0 0 1-.696.2V5.574a.398.398 0 0 0-.399-.398h-2.39a.398.398 0 0 0-.397.398v6.671l-.24.18a.398.398 0 0 0-.079.557l.94 1.252a.398.398 0 0 1-.376.633l-1.042-.149V8.761a.398.398 0 0 0-.398-.398zm-1.884 6.648l-.24.165-.275-1.312a.398.398 0 0 0-.388-.317h-.797v-2.794H6.77v3.991c0 .1.039.195.107.267zm2.68 3.234v.946l-.992.208a.796.796 0 0 0-.492 1.232l.569.827-.724.724-.827-.57a.797.797 0 0 0-1.232.492l-.209.994h-.946l-.209-.992a.796.796 0 0 0-1.23-.492l-.829.568-.724-.724.57-.827a.796.796 0 0 0-.491-1.232l-.995-.208v-.946l.993-.21a.796.796 0 0 0 .492-1.229l-.569-.83.724-.723.83.569a.797.797 0 0 0 1.231-.492l.207-.993h.946l.21.992a.796.796 0 0 0 1.23.493l.828-.57.724.725-.569.83a.796.796 0 0 0 .492 1.23zm14.101-1.796v-.001l-1.549-.221a.398.398 0 0 1-.183-.714l.508-.38h1.063c.22 0 .398-.178.398-.398V.398A.398.398 0 0 0 23.497 0H.398A.398.398 0 0 0 0 .398v14.337c0 .22.178.398.398.398h1.03l-.515.515a.398.398 0 0 0-.046.508l.757 1.1-1.31.275a.398.398 0 0 0-.314.39v1.593c0 .189.132.351.316.39l1.31.275-.757 1.1a.398.398 0 0 0 .046.508l1.195 1.195c.135.135.349.155.507.046l1.1-.757.275 1.31c.04.182.201.313.389.314h1.593a.398.398 0 0 0 .39-.316l.275-1.31 1.1.759c.158.109.372.09.507-.046l1.195-1.195a.398.398 0 0 0 .046-.507l-.756-1.101 1.309-.275a.398.398 0 0 0 .314-.39v-1.593a.398.398 0 0 0-.316-.39l-1.309-.275.757-1.1a.398.398 0 0 0-.046-.508l-.514-.515h1.644l-.319 2.217c-.031.217.12.42.337.451h.005l1.55.222a.398.398 0 0 1 .182.713l-1.254.937a.398.398 0 0 0-.08.558l1.434 1.912a.398.398 0 0 0 .558.08l1.252-.94a.398.398 0 0 1 .633.375l-.222 1.55c-.03.217.12.419.338.45l2.366.338a.398.398 0 0 0 .45-.338l.222-1.549a.398.398 0 0 1 .713-.183l.938 1.252a.398.398 0 0 0 .558.08l1.911-1.434a.398.398 0 0 0 .08-.558l-.939-1.251a.398.398 0 0 1 .375-.633l1.549.22c.218.032.42-.12.45-.337l.339-2.365a.398.398 0 0 0-.338-.451z"/></g><g><path d="M5.505 20.177a1.672 1.672 0 1 1 0-3.344 1.672 1.672 0 0 1 0 3.344zM5.5 16a2.5 2.5 0 1 0 0 5 2.5 2.5 0 0 0 0-5z"/></g><g><path d="M17 19.25a2.25 2.25 0 1 1 0-4.5 2.25 2.25 0 0 1 0 4.5zM17 14a3 3 0 1 0 0 6 3 3 0 0 0 0-6z"/></g><g><path d="M15.686 1.403L13.719 1l-.158.79.954.196L4 8.304 4.398 9 15.05 2.601l-.22 1.132.77.158.394-2.015a.403.403 0 0 0-.307-.473z"/></g><g><path d="M1 11h1v3H1z"/></g><g><path d="M1 9h1v1H1z"/></g><g><path d="M21 5h1v6h-1z"/></g><g><path d="M21 3h1v1h-1z"/></g><g><path d="M9 22h1v1H9z"/></g><g><path d="M10 22h1v1h-1z"/></g><g><path d="M13 22h1v1h-1z"/></g></g></g></svg>