<svg xmlns="http://www.w3.org/2000/svg" width="24" height="27" viewBox="0 0 24 27"><g><g><g><path d="M18.72 1.393h4.136l-.89.797a.576.576 0 0 0 0 .858l.89.797H18.72zm-.825 13.265c-.735 0-1.334.606-1.334 1.35v2.635a1.31 1.31 0 0 0-.453-.117l.319-2.61c.062-.51-.194-.847-.442-1.173-.026-.034-1.545-1.86-1.545-1.86l.932-2.854 2.567-1.579v6.208zm3.743 11.55h-4.295v-2.372a.393.393 0 0 0-.391-.396.393.393 0 0 0-.391.396v2.373h-4.296v-6.337c0-.308.248-.559.553-.559h3.19c.305 0 .553.251.553.56v1.983c0 .219.175.396.39.396.217 0 .392-.177.392-.396V16.01c0-.309.248-.56.552-.56h3.19c.305 0 .553.251.553.56zm-14.45-1.417V22.42c0-.309.248-.56.552-.56h3.182c.304 0 .552.251.552.56v3.789H7.188V24.79zm-5.077 0c0-.308.248-.56.553-.56h3.19c.305 0 .553.252.553.56v1.418H2.11zm9.318-7.058a2.17 2.17 0 0 0 .11-.734l.141-2.64 1.808-.75-.328 1.842a.192.192 0 0 0-.003.015l-.272 1.524c-.035.158-.066.397-.163.527L10.08 21.07h-.217zm4.222-1.915l-.33 2.702h-.273l-.22-2.264a.834.834 0 0 0-.46-.67l-.393-.251.262-1.47s1.103 1.327 1.129 1.36c.228.301.306.422.285.593zm-2.311 2.176c.188-.227.24-.492.281-.706l.204-1.113s.182.115.201.123c.014.006.023.02.024.035l.213 2.179h-1.31zm-1.856 3.197a1.314 1.314 0 0 0-.43-.116l.43-.577zm1.01-14.66l.35-.182a.453.453 0 0 1 .61.2l.452.894a.463.463 0 0 1-.15.59l-.128.07-.268.139a.451.451 0 0 1-.61-.2l-.453-.894a.461.461 0 0 1 .197-.618zm10.175-3.917l1.14-1.016a.57.57 0 0 0 .154-.629.559.559 0 0 0-.526-.368H18.72V.396A.393.393 0 0 0 18.33 0a.393.393 0 0 0-.39.396v5.337l-3.211 1.764a1.263 1.263 0 0 0-.127-.415l-.452-.894a1.23 1.23 0 0 0-1.663-.543l-.35.18a1.255 1.255 0 0 0-.536 1.683l.453.895c.105.209.261.374.445.49-.24.327-.354.73-.471 1.148l-.085.302a.396.396 0 0 0 .377.503c.17 0 .327-.113.376-.288l.084-.301c.171-.612.276-.94.611-1.123l.6-.33.075-.039.07-.041 4.28-2.353a1.678 1.678 0 0 1-.789 1.345l-2.783 1.712a.144.144 0 0 0-.01.005l-.866.533a.399.399 0 0 0-.13.544.388.388 0 0 0 .504.15l-.657 2.011-.48.2-1.307.542.377-1.347a.397.397 0 0 0-.27-.489.39.39 0 0 0-.483.273l-.595 2.13a.384.384 0 0 0-.014.086l-.155 2.894c-.005.11.018.32-.032.427L8.997 21.07H7.741c-.736 0-1.335.606-1.335 1.35v1.143a1.31 1.31 0 0 0-.552-.122h-3.19c-.736 0-1.335.606-1.335 1.351v1.418H.391a.393.393 0 0 0-.391.395c0 .219.175.396.39.396h23.046c.216 0 .391-.177.391-.396a.393.393 0 0 0-.39-.395H22.42v-10.2c0-.745-.599-1.351-1.334-1.351H18.72V7.754a2.492 2.492 0 0 0 .393-2.115.393.393 0 0 0-.393-.29v-.722h4.716a.558.558 0 0 0 .526-.369.57.57 0 0 0-.154-.628z"/></g></g></g></svg>